<?xml version="1.0" encoding="UTF-8" standalone="no"?>
<!-- Created with Inkscape (http://www.inkscape.org/) -->

<svg
   width="255.99998"
   height="256"
   viewBox="0 0 67.733329 67.733334"
   version="1.1"
   id="svg1"
   inkscape:export-filename="logo.svg"
   inkscape:export-xdpi="93.75"
   inkscape:export-ydpi="93.75"
   xmlns:inkscape="http://www.inkscape.org/namespaces/inkscape"
   xmlns:sodipodi="http://sodipodi.sourceforge.net/DTD/sodipodi-0.dtd"
   xmlns="http://www.w3.org/2000/svg"
   xmlns:svg="http://www.w3.org/2000/svg">
  <sodipodi:namedview
     id="namedview1"
     pagecolor="#ffffff"
     bordercolor="#000000"
     borderopacity="0.25"
     inkscape:showpageshadow="2"
     inkscape:pageopacity="0.0"
     inkscape:pagecheckerboard="0"
     inkscape:deskcolor="#d1d1d1"
     inkscape:document-units="mm"
     showgrid="false" />
  <defs
     id="defs1" />
  <g
     inkscape:label="Layer 1"
     inkscape:groupmode="layer"
     id="layer1">
    <path
       d="m 21.866882,2.6763224 a 33.072918,33.072918 0 0 0 -3.350183,1.3875122 33.072918,33.072918 0 0 0 -2.266011,1.2686564 33.072918,33.072918 0 0 0 -2.159042,1.442806 33.072918,33.072918 0 0 0 -2.039152,1.6076538 33.072918,33.072918 0 0 0 -1.90686,1.7626832 33.072918,33.072918 0 0 0 -1.7626832,1.90686 33.072918,33.072918 0 0 0 -1.6076538,2.039669 33.072918,33.072918 0 0 0 -1.442806,2.159041 33.072918,33.072918 0 0 0 -1.2691731,2.266012 33.072918,33.072918 0 0 0 -1.0872722,2.358512 33.072918,33.072918 0 0 0 -0.8986531,2.436027 33.072918,33.072918 0 0 0 -0.7048666,2.499589 33.072918,33.072918 0 0 0 -0.50642899,2.547132 33.072918,33.072918 0 0 0 -0.30540772,2.578654 33.072918,33.072918 0 0 0 -0.10180257,2.594673 33.072918,33.072918 0 0 0 0.10180257,2.594674 33.072918,33.072918 0 0 0 0.30540772,2.579171 33.072918,33.072918 0 0 0 0.50642899,2.547131 33.072918,33.072918 0 0 0 0.7048666,2.499072 33.072918,33.072918 0 0 0 0.8986531,2.436544 33.072918,33.072918 0 0 0 1.0872722,2.358513 33.072918,33.072918 0 0 0 1.2691731,2.266011 33.072918,33.072918 0 0 0 1.442806,2.159041 33.072918,33.072918 0 0 0 1.6076538,2.039152 33.072918,33.072918 0 0 0 1.7626832,1.906861 33.072918,33.072918 0 0 0 1.90686,1.762683 33.072918,33.072918 0 0 0 2.039152,1.607654 33.072918,33.072918 0 0 0 2.159042,1.442806 33.072918,33.072918 0 0 0 2.266011,1.269173 33.072918,33.072918 0 0 0 2.358513,1.087272 33.072918,33.072918 0 0 0 2.436543,0.898653 33.072918,33.072918 0 0 0 2.499073,0.704867 33.072918,33.072918 0 0 0 2.547131,0.506429 33.072918,33.072918 0 0 0 2.579171,0.305407 33.072918,33.072918 0 0 0 2.594673,0.101803 33.072918,33.072918 0 0 0 2.594674,-0.101803 33.072918,33.072918 0 0 0 2.578654,-0.305407 33.072918,33.072918 0 0 0 2.547131,-0.506429 33.072918,33.072918 0 0 0 2.499589,-0.704867 33.072918,33.072918 0 0 0 2.436027,-0.898653 33.072918,33.072918 0 0 0 2.358513,-1.087272 33.072918,33.072918 0 0 0 2.266011,-1.269173 33.072918,33.072918 0 0 0 2.159042,-1.442806 33.072918,33.072918 0 0 0 2.039152,-1.607654 33.072918,33.072918 0 0 0 1.90686,-1.762683 33.072918,33.072918 0 0 0 1.7632,-1.906861 33.072918,33.072918 0 0 0 1.607654,-2.039152 33.072918,33.072918 0 0 0 1.442806,-2.159041 33.072918,33.072918 0 0 0 1.268656,-2.266011 33.072918,33.072918 0 0 0 1.087272,-2.358513 33.072918,33.072918 0 0 0 0.898653,-2.436544 33.072918,33.072918 0 0 0 0.704867,-2.499072 33.072918,33.072918 0 0 0 0.506946,-2.547131 33.072918,33.072918 0 0 0 0.304891,-2.575554 33.072918,33.072918 0 0 0 0.101802,-2.591573 L 59.2646,28.475264 a 21.170815,21.170815 0 0 1 -0.254248,3.231328 21.170815,21.170815 0 0 1 -0.775664,3.229777 21.170815,21.170815 0 0 1 -1.27124,3.06958 21.170815,21.170815 0 0 1 -1.735811,2.832385 21.170815,21.170815 0 0 1 -2.157491,2.525944 21.170815,21.170815 0 0 1 -2.525944,2.157491 21.170815,21.170815 0 0 1 -2.832902,1.736328 21.170815,21.170815 0 0 1 -3.069064,1.271241 21.170815,21.170815 0 0 1 -3.230293,0.775146 A 21.170815,21.170815 0 0 1 38.1,49.56545 21.170815,21.170815 0 0 1 34.788057,49.304484 21.170815,21.170815 0 0 1 31.55828,48.529338 21.170815,21.170815 0 0 1 28.4887,47.258097 21.170815,21.170815 0 0 1 25.655798,45.521769 21.170815,21.170815 0 0 1 23.129854,43.364278 21.170815,21.170815 0 0 1 20.97288,40.838334 a 21.170815,21.170815 0 0 1 -1.736328,-2.832385 21.170815,21.170815 0 0 1 -1.27124,-3.06958 21.170815,21.170815 0 0 1 -0.775147,-3.229777 21.170815,21.170815 0 0 1 -0.260966,-3.311943 21.170815,21.170815 0 0 1 0.260966,-3.311942 21.170815,21.170815 0 0 1 0.775147,-3.230294 21.170815,21.170815 0 0 1 1.27124,-3.069063 21.170815,21.170815 0 0 1 1.736328,-2.832902 21.170815,21.170815 0 0 1 2.156974,-2.525944 21.170815,21.170815 0 0 1 2.525944,-2.157491 21.170815,21.170815 0 0 1 2.832902,-1.7358118 21.170815,21.170815 0 0 1 2.071192,-0.8578288 z"
       style="fill:#42068b;fill-opacity:1;stroke-width:0.261931"
       id="path7"
       inkscape:export-filename="logo.svg"
       inkscape:export-xdpi="99.32988"
       inkscape:export-ydpi="99.32988" />
  </g>
</svg>
